<?xml version="1.0" standalone="no"?>
<!DOCTYPE svg PUBLIC "-//W3C//DTD SVG 20010904//EN"
 "http://www.w3.org/TR/2001/REC-SVG-20010904/DTD/svg10.dtd">
<svg version="1.0" xmlns="http://www.w3.org/2000/svg"
 width="640.000000pt" height="640.000000pt" viewBox="0 0 640.000000 640.000000"
 preserveAspectRatio="xMidYMid meet">

<g transform="translate(0.000000,640.000000) scale(0.100000,-0.100000)"
fill="#000000" stroke="none">
<path d="M2460 5006 c-487 -204 -886 -622 -1064 -1116 -33 -92 -80 -277 -97
-385 -19 -119 -16 -437 5 -560 116 -682 555 -1233 1182 -1484 93 -38 271 -91
302 -91 8 0 -33 31 -90 68 -171 114 -286 208 -428 351 -188 190 -303 356 -386
557 -173 419 -148 850 81 1387 l16 39 46 -89 c126 -245 312 -484 659 -844 185
-192 310 -363 404 -549 48 -96 100 -237 100 -271 0 -11 5 -19 10 -19 6 0 10 8
10 18 0 33 56 186 103 278 94 187 222 357 436 579 302 313 505 576 625 808
l45 89 16 -39 c146 -343 205 -617 192 -891 -26 -525 -312 -976 -865 -1363 -61
-43 -124 -85 -140 -93 -78 -43 150 17 303 80 630 256 1078 831 1177 1511 18
127 15 434 -6 558 -69 409 -245 757 -529 1043 -169 171 -313 276 -522 377
-181 88 -191 90 -133 26 73 -81 139 -188 177 -286 44 -115 54 -262 26 -378
-48 -202 -223 -470 -509 -781 -113 -122 -216 -250 -273 -338 -47 -72 -123
-224 -123 -245 0 -7 -4 -13 -10 -13 -5 0 -10 7 -10 16 0 33 -115 236 -191 337
-43 58 -135 167 -205 243 -286 313 -446 555 -503 764 -61 218 2 448 180 659
32 39 56 71 52 71 -5 -1 -33 -11 -63 -24z"/>
</g>
</svg>
